<mxfile host="app.diagrams.net" modified="2024-05-31T16:19:49.991Z" agent="Mozilla/5.0 (Windows NT 10.0; Win64; x64) AppleWebKit/537.36 (KHTML, like Gecko) Chrome/125.0.0.0 Safari/537.36" etag="4YxNTKgkUv5LcCGIwSqr" version="24.4.13" type="device">
  <diagram id="bc47vRQSer-DN1HRI0ml" name="Page-1">
    <mxGraphModel dx="882" dy="578" grid="1" gridSize="10" guides="1" tooltips="1" connect="1" arrows="1" fold="1" page="1" pageScale="1" pageWidth="850" pageHeight="1100" math="0" shadow="0">
      <root>
        <mxCell id="0" />
        <mxCell id="1" parent="0" />
        <mxCell id="41gbTYq_zYs_E45DyN2j-1" value="" style="swimlane;startSize=0;" vertex="1" parent="1">
          <mxGeometry x="440" y="40" width="360" height="520" as="geometry" />
        </mxCell>
        <mxCell id="41gbTYq_zYs_E45DyN2j-2" value="" style="swimlane;startSize=0;" vertex="1" parent="41gbTYq_zYs_E45DyN2j-1">
          <mxGeometry x="40" y="360" width="280" height="120" as="geometry" />
        </mxCell>
        <mxCell id="41gbTYq_zYs_E45DyN2j-13" value="Data store service" style="rounded=1;whiteSpace=wrap;html=1;" vertex="1" parent="41gbTYq_zYs_E45DyN2j-2">
          <mxGeometry x="40" y="40" width="80" height="40" as="geometry" />
        </mxCell>
        <mxCell id="41gbTYq_zYs_E45DyN2j-14" value="Secondary" style="rounded=1;whiteSpace=wrap;html=1;" vertex="1" parent="41gbTYq_zYs_E45DyN2j-2">
          <mxGeometry x="160" y="40" width="80" height="40" as="geometry" />
        </mxCell>
        <mxCell id="41gbTYq_zYs_E45DyN2j-29" value="Storage node" style="text;html=1;align=center;verticalAlign=middle;whiteSpace=wrap;rounded=0;" vertex="1" parent="41gbTYq_zYs_E45DyN2j-2">
          <mxGeometry x="160" y="80" width="120" height="40" as="geometry" />
        </mxCell>
        <mxCell id="41gbTYq_zYs_E45DyN2j-31" value="Secondary" style="text;html=1;align=center;verticalAlign=middle;whiteSpace=wrap;rounded=0;" vertex="1" parent="41gbTYq_zYs_E45DyN2j-2">
          <mxGeometry x="160" width="120" height="40" as="geometry" />
        </mxCell>
        <mxCell id="41gbTYq_zYs_E45DyN2j-3" value="" style="swimlane;startSize=0;" vertex="1" parent="41gbTYq_zYs_E45DyN2j-1">
          <mxGeometry x="40" y="40" width="280" height="120" as="geometry" />
        </mxCell>
        <mxCell id="41gbTYq_zYs_E45DyN2j-6" value="Data store service" style="rounded=1;whiteSpace=wrap;html=1;" vertex="1" parent="41gbTYq_zYs_E45DyN2j-3">
          <mxGeometry x="40" y="40" width="80" height="40" as="geometry" />
        </mxCell>
        <mxCell id="41gbTYq_zYs_E45DyN2j-7" value="Secondary" style="rounded=1;whiteSpace=wrap;html=1;" vertex="1" parent="41gbTYq_zYs_E45DyN2j-3">
          <mxGeometry x="160" y="40" width="80" height="40" as="geometry" />
        </mxCell>
        <mxCell id="41gbTYq_zYs_E45DyN2j-27" value="Secondary" style="text;html=1;align=center;verticalAlign=middle;whiteSpace=wrap;rounded=0;" vertex="1" parent="41gbTYq_zYs_E45DyN2j-3">
          <mxGeometry x="160" width="120" height="40" as="geometry" />
        </mxCell>
        <mxCell id="41gbTYq_zYs_E45DyN2j-30" value="Storage node" style="text;html=1;align=center;verticalAlign=middle;whiteSpace=wrap;rounded=0;" vertex="1" parent="41gbTYq_zYs_E45DyN2j-3">
          <mxGeometry x="160" y="80" width="120" height="40" as="geometry" />
        </mxCell>
        <mxCell id="41gbTYq_zYs_E45DyN2j-4" value="" style="swimlane;startSize=0;" vertex="1" parent="41gbTYq_zYs_E45DyN2j-1">
          <mxGeometry x="40" y="200" width="280" height="120" as="geometry" />
        </mxCell>
        <mxCell id="41gbTYq_zYs_E45DyN2j-8" value="Data store service" style="rounded=1;whiteSpace=wrap;html=1;" vertex="1" parent="41gbTYq_zYs_E45DyN2j-4">
          <mxGeometry x="40" y="40" width="80" height="40" as="geometry" />
        </mxCell>
        <mxCell id="41gbTYq_zYs_E45DyN2j-11" value="Primary" style="rounded=1;whiteSpace=wrap;html=1;" vertex="1" parent="41gbTYq_zYs_E45DyN2j-4">
          <mxGeometry x="160" y="40" width="80" height="40" as="geometry" />
        </mxCell>
        <mxCell id="41gbTYq_zYs_E45DyN2j-28" value="Storage node" style="text;html=1;align=center;verticalAlign=middle;whiteSpace=wrap;rounded=0;" vertex="1" parent="41gbTYq_zYs_E45DyN2j-4">
          <mxGeometry x="160" y="80" width="120" height="40" as="geometry" />
        </mxCell>
        <mxCell id="41gbTYq_zYs_E45DyN2j-32" value="Primary" style="text;html=1;align=center;verticalAlign=middle;whiteSpace=wrap;rounded=0;" vertex="1" parent="41gbTYq_zYs_E45DyN2j-4">
          <mxGeometry x="160" width="120" height="40" as="geometry" />
        </mxCell>
        <mxCell id="41gbTYq_zYs_E45DyN2j-23" style="edgeStyle=orthogonalEdgeStyle;rounded=0;orthogonalLoop=1;jettySize=auto;html=1;exitX=0;exitY=0.5;exitDx=0;exitDy=0;entryX=1;entryY=0.5;entryDx=0;entryDy=0;" edge="1" parent="1" source="41gbTYq_zYs_E45DyN2j-15" target="41gbTYq_zYs_E45DyN2j-16">
          <mxGeometry relative="1" as="geometry" />
        </mxCell>
        <mxCell id="41gbTYq_zYs_E45DyN2j-24" style="edgeStyle=orthogonalEdgeStyle;rounded=0;orthogonalLoop=1;jettySize=auto;html=1;exitX=0.5;exitY=1;exitDx=0;exitDy=0;entryX=0.5;entryY=0;entryDx=0;entryDy=0;" edge="1" parent="1" source="41gbTYq_zYs_E45DyN2j-15" target="41gbTYq_zYs_E45DyN2j-19">
          <mxGeometry relative="1" as="geometry" />
        </mxCell>
        <mxCell id="41gbTYq_zYs_E45DyN2j-26" style="edgeStyle=orthogonalEdgeStyle;rounded=0;orthogonalLoop=1;jettySize=auto;html=1;exitX=1;exitY=0.5;exitDx=0;exitDy=0;entryX=0;entryY=0.5;entryDx=0;entryDy=0;" edge="1" parent="1" source="41gbTYq_zYs_E45DyN2j-15" target="41gbTYq_zYs_E45DyN2j-8">
          <mxGeometry relative="1" as="geometry" />
        </mxCell>
        <mxCell id="41gbTYq_zYs_E45DyN2j-15" value="API service" style="rounded=1;whiteSpace=wrap;html=1;" vertex="1" parent="1">
          <mxGeometry x="240" y="280" width="80" height="40" as="geometry" />
        </mxCell>
        <mxCell id="41gbTYq_zYs_E45DyN2j-16" value="IAM" style="rounded=1;whiteSpace=wrap;html=1;" vertex="1" parent="1">
          <mxGeometry x="80" y="280" width="80" height="40" as="geometry" />
        </mxCell>
        <mxCell id="41gbTYq_zYs_E45DyN2j-22" style="edgeStyle=orthogonalEdgeStyle;rounded=0;orthogonalLoop=1;jettySize=auto;html=1;exitX=0.5;exitY=1;exitDx=0;exitDy=0;entryX=0.5;entryY=0;entryDx=0;entryDy=0;" edge="1" parent="1" source="41gbTYq_zYs_E45DyN2j-17" target="41gbTYq_zYs_E45DyN2j-15">
          <mxGeometry relative="1" as="geometry" />
        </mxCell>
        <mxCell id="41gbTYq_zYs_E45DyN2j-17" value="Load balancer" style="rounded=1;whiteSpace=wrap;html=1;" vertex="1" parent="1">
          <mxGeometry x="240" y="160" width="80" height="40" as="geometry" />
        </mxCell>
        <mxCell id="41gbTYq_zYs_E45DyN2j-21" style="edgeStyle=orthogonalEdgeStyle;rounded=0;orthogonalLoop=1;jettySize=auto;html=1;exitX=0.5;exitY=1;exitDx=0;exitDy=0;entryX=0.5;entryY=0;entryDx=0;entryDy=0;" edge="1" parent="1" source="41gbTYq_zYs_E45DyN2j-18" target="41gbTYq_zYs_E45DyN2j-17">
          <mxGeometry relative="1" as="geometry" />
        </mxCell>
        <mxCell id="41gbTYq_zYs_E45DyN2j-18" value="Client" style="rounded=1;whiteSpace=wrap;html=1;" vertex="1" parent="1">
          <mxGeometry x="240" y="40" width="80" height="40" as="geometry" />
        </mxCell>
        <mxCell id="41gbTYq_zYs_E45DyN2j-25" style="edgeStyle=orthogonalEdgeStyle;rounded=0;orthogonalLoop=1;jettySize=auto;html=1;exitX=0.5;exitY=1;exitDx=0;exitDy=0;entryX=0.5;entryY=0;entryDx=0;entryDy=0;" edge="1" parent="1" source="41gbTYq_zYs_E45DyN2j-19" target="41gbTYq_zYs_E45DyN2j-20">
          <mxGeometry relative="1" as="geometry" />
        </mxCell>
        <mxCell id="41gbTYq_zYs_E45DyN2j-19" value="Metadata service" style="rounded=1;whiteSpace=wrap;html=1;" vertex="1" parent="1">
          <mxGeometry x="240" y="400" width="80" height="40" as="geometry" />
        </mxCell>
        <mxCell id="41gbTYq_zYs_E45DyN2j-20" value="Metadata DB" style="rounded=1;whiteSpace=wrap;html=1;" vertex="1" parent="1">
          <mxGeometry x="240" y="520" width="80" height="40" as="geometry" />
        </mxCell>
      </root>
    </mxGraphModel>
  </diagram>
</mxfile>
